<svg width="40" height="40" viewBox="0 0 40 40" fill="none" xmlns="http://www.w3.org/2000/svg">
  <defs>
    <linearGradient id="grad1" x1="0%" y1="0%" x2="100%" y2="100%">
      <stop offset="0%" style="stop-color:#3b82f6;stop-opacity:1" />
      <stop offset="100%" style="stop-color:#8b5cf6;stop-opacity:1" />
    </linearGradient>
  </defs>
  
  <!-- Background circle with gradient -->
  <circle cx="20" cy="20" r="18" fill="url(#grad1)" stroke="white" stroke-width="2"/>
  
  <!-- TypeScript T -->
  <path d="M12 12h16v3h-6.5v13h-3V15H12v-3z" fill="white" font-weight="bold"/>
  
  <!-- Helper S -->
  <path d="M26 20c1.1 0 2 .9 2 2v2c0 1.1-.9 2-2 2h-4c-.6 0-1-.4-1-1s.4-1 1-1h4v-2h-4c-1.1 0-2-.9-2-2v-2c0-1.1.9-2 2-2h4c.6 0 1 .4 1 1s-.4 1-1 1h-4v2h4z" fill="white"/>
  
  <!-- Decorative dots -->
  <circle cx="32" cy="8" r="2" fill="white" opacity="0.8"/>
  <circle cx="8" cy="32" r="1.5" fill="white" opacity="0.6"/>
  <circle cx="35" cy="35" r="1" fill="white" opacity="0.4"/>
</svg>
